<svg width="37.25" height="34" xmlns="http://www.w3.org/2000/svg"><g><path d="M.010000000000001563 18c0-8.837 7.163-16 16-16s16 7.163 16 16-7.163 16-16 16-16-7.163-16-16z" fill="#fff" fill-rule="evenodd" opacity=".5"/><path d="M35.363 14.879c.37-.196.693-.47.946-.804.273-.368.485-.778.629-1.213.278-.818.378-1.77.289-2.723a6.952 6.952 0 0 0-.457-1.919 6.056 6.056 0 0 0-.466-.93 4.774 4.774 0 0 0-2.107-1.89 1.9 1.9 0 0 0 .283-.533c.102-.296.145-.63.122-.983a3.105 3.105 0 0 0-.137-.73C34.14 2.12 33.218.978 32.213.387 31.778.13 31.36 0 30.988 0c-.124 0-.248.015-.368.046a2.076 2.076 0 0 0-1.31 1.037c-.405.723-.497 1.69-.405 2.571l.012.096c.032.23.098.512.199.792.095.276.228.537.396.775a4.33 4.33 0 0 0-.84.472c-.663.48-2.395 3.098-2.259 4.511a3.782 3.782 0 0 0-.645-.017c-.94.076-1.476.205-2.424 1.079a11.758 11.758 0 0 0-.354.34c-.852.854-1.31 1.505-1.525 2.244a4.09 4.09 0 0 0-.153 1.166c.003.097.008.194.017.29a1.691 1.691 0 0 0-.183-.009c-1.307 0-3.431 1.336-4.164 2.062a1.728 1.728 0 0 0-.18.205 4.33 4.33 0 0 0-.473.84 3.105 3.105 0 0 0-.775-.396 4.203 4.203 0 0 0-.61-.169 3.268 3.268 0 0 0-.278-.042 5.988 5.988 0 0 0-.62-.032c-.483 0-.97.061-1.41.204a2.22 2.22 0 0 0-1.578 1.543c-.031.12-.047.245-.047.37 0 .372.131.788.387 1.223l.023.04c.535.885 1.492 1.7 2.42 2.092a3.452 3.452 0 0 0 .635.2c.202.043.407.064.613.065.186 0 .371-.02.553-.06.28-.06.544-.18.773-.352a4.539 4.539 0 0 0 1.174 1.546c.47.399 1.004.716 1.578.94a7.103 7.103 0 0 0 1.985.47c.225.02.45.03.675.03a6.717 6.717 0 0 0 1.873-.257 4.602 4.602 0 0 0 1.494-.727c.121-.091.234-.192.34-.302.29-.299.508-.66.637-1.057l.102.068c.051.035.105.069.16.1a4.646 4.646 0 0 0 2.287.585c.373 0 .745-.04 1.11-.119a6.514 6.514 0 0 0 1.684-.62 8.132 8.132 0 0 0 1.996-1.503c1.423-1.45 2.179-3.189 2.179-4.8a4.57 4.57 0 0 0-.643-2.381.826.826 0 0 0-.044-.063 1.05 1.05 0 0 1-.036-.05c.137-.045.27-.102.397-.168zm-9.349-3.73c-.06 0-.12.003-.175.007-.123.01-.247.022-.37.037-.61.078-.991.263-1.834 1.103a15.78 15.78 0 0 0-.426.445c-.8.886-.976 1.437-1.02 2.168a4.16 4.16 0 0 0 .108 1.08c.024.109.05.217.077.324l.011.029.014.036.002.005.001.015.001.021c.655 2.4 2.677 5.827 4.454 6.814.57.317 1.212.48 1.863.476a4.597 4.597 0 0 0 1.165-.156 5.977 5.977 0 0 0 1.699-.76 7.493 7.493 0 0 0 1.301-1.065 7.626 7.626 0 0 0 1.046-1.325c.58-.938.884-1.928.884-2.857a3.706 3.706 0 0 0-.52-1.934c-1.078-1.792-5.037-3.904-7.431-4.369a4.544 4.544 0 0 0-.85-.093zm-4.643 5.163a.366.366 0 0 0-.15-.057c-.738-.115-3.066 1.187-3.648 1.841a.999.999 0 0 0-.063.078c-.04.055-.078.11-.115.168-.364.563-.738 1.48-.53 3.154.014.117.031.233.05.35a3.767 3.767 0 0 0 1.94 2.71c.205.116.418.218.637.305.56.22 1.148.358 1.747.41 1.298.116 2.597-.153 3.419-.773l.007-.006c.217-.164.398-.372.53-.61a1.67 1.67 0 0 0 .166-.428c.018-.077.03-.156.034-.235-.48-.455-.917-.953-1.306-1.489-1.141-1.546-2.1-3.507-2.531-5.112-.05-.181-.121-.262-.187-.306zM33.653 6.12a3.913 3.913 0 0 0-.797-.215 9.133 9.133 0 0 0-.489-.066c-1.758-.19-2.652.277-3.182.661-.654.472-2.186 3.2-1.888 3.815.06.125.07.138.232.183.006.001.01.004.015.007l.017.01c2.234.577 5.222 2.143 6.784 3.76.083-.005.165-.018.245-.038.214-.052.429-.154.623-.297.151-.112.285-.244.399-.393.603-.794.861-2.06.742-3.327a6.076 6.076 0 0 0-.396-1.674c-.29-.725-.95-1.898-2.305-2.426zm-17.7 15.034c.02.279.053.557.098.833.003.02.009.041.014.062a.713.713 0 0 1 .012.051c0 .004-.002.008-.003.011-.007.032-.014.064-.014.098v.014c.004.063-.031.137-.098.206a.622.622 0 0 1-.086.076c-.203.149-.585.27-1.086.198a2.343 2.343 0 0 1-.243-.049c-.505-.128-1.069-.462-1.55-.891a4.314 4.314 0 0 1-.868-1.043c-.2-.352-.281-.673-.225-.886a1.18 1.18 0 0 1 .316-.546c.637-.63 1.925-.563 2.31-.527a3.987 3.987 0 0 1 .063.006c.52.06 1.126.31 1.348.548a.462.462 0 0 1 .044.055c.029.043.025.056.023.06l-.001.006a.43.43 0 0 0 0 .207l-.029.205c-.049.407-.058.842-.025 1.306zm17.53-16.248a.61.61 0 0 0 .007-.008c.176-.213.326-.671.193-1.28a2.436 2.436 0 0 0-.018-.082c-.218-.857-1.033-1.887-1.896-2.394a2.498 2.498 0 0 0-.288-.147c-.252-.107-.475-.143-.637-.101-1.207.32-1.117 2.154-1.073 2.627l.005.043c.059.565.347 1.238.604 1.411a.315.315 0 0 0 .012.008c.03.018.043.017.048.016a.37.37 0 0 1 .094-.015c.04 0 .08.005.119.013.26-.04.521-.064.784-.071.326-.009.668.005 1.026.043.179.02.356.043.533.072l.059.013a.77.77 0 0 0 .05.012c.042-.01.083-.02.127-.016.076-.002.169-.048.251-.144z" fill="#0a99ab" fill-rule="evenodd"/></g></svg>