<svg width="37.25" height="32" xmlns="http://www.w3.org/2000/svg"><g><path d="M.010000000000001563 16c0-8.837 7.163-16 16-16s16 7.163 16 16-7.163 16-16 16-16-7.163-16-16z" fill="#fff" fill-rule="evenodd" opacity=".5"/><path d="M32.066 13.76a7.704 7.704 0 0 0-.61-3.024c2.775-.106 5.575-.853 5.782-2.691.04-.35-.016-.707-.16-1.044a2.587 2.587 0 0 0-.558-.818c-.866-.866-2.042-1.027-2.9-1.145a17.28 17.28 0 0 1-.347-.049 11.948 11.948 0 0 1-.05-.35c-.118-.858-.28-2.033-1.144-2.897-.473-.473-1.067-.732-1.642-.732-.074 0-.147.004-.22.012-.639.095-1.2.473-1.529 1.029-.737 1.086-1.084 2.88-1.16 4.675l-.003.079a7.778 7.778 0 0 0-3.04-.614A8.289 8.289 0 0 0 18.6 8.664a8.39 8.39 0 0 0-2.467 5.908 7.709 7.709 0 0 0 .585 2.966c-1.217.053-3.186.26-4.465 1.008a2.25 2.25 0 0 0-1.239 1.679c-.04.356.02.72.17 1.065.132.298.319.568.55.796.13.13.271.248.422.353.799.56 1.75.692 2.475.791a54.056 54.056 0 0 1 .35.05 10.968 10.968 0 0 1 .05.35c.025.188.053.376.084.563.085.5.219 1.052.494 1.566.15.283.34.542.567.768.472.472 1.054.733 1.64.733a1.942 1.942 0 0 0 .655-.114c1.791-.646 2.176-3.879 2.252-5.604a7.784 7.784 0 0 0 2.987.592c2.202 0 4.292-.878 5.887-2.473a8.381 8.381 0 0 0 2.469-5.9zM35.9 6.803a2.815 2.815 0 0 0-1.327-.706 5.535 5.535 0 0 0-.345-.077 13.512 13.512 0 0 0-.729-.114 9.637 9.637 0 0 1-.696-.112.438.438 0 0 1-.335-.334 5.521 5.521 0 0 1-.055-.296c-.02-.127-.04-.263-.058-.404-.106-.767-.224-1.63-.782-2.275a2.294 2.294 0 0 0-.114-.124 1.814 1.814 0 0 0-.381-.294 1.295 1.295 0 0 0-.64-.181c-.042 0-.082.002-.123.007-.37.065-.695.289-.888.612-.623.883-.955 2.589-1.026 4.294-.01.233-.015.465-.015.698a.437.437 0 0 1-.647.383 6.84 6.84 0 0 0-3.254-.813 7.418 7.418 0 0 0-5.267 2.217 7.553 7.553 0 0 0-2.135 4.233 7.25 7.25 0 0 0-.077 1.053 6.775 6.775 0 0 0 .78 3.183.437.437 0 0 1-.385.643c-.23.001-.459.007-.688.018-1.98.093-3.961.543-4.613 1.394a1.032 1.032 0 0 0-.218.516c-.043.385.128.802.47 1.145.373.353.835.597 1.336.707.113.03.226.054.34.076.239.044.48.081.722.113.158.021.309.042.45.066.083.013.167.03.25.047a.438.438 0 0 1 .333.334c.02.095.039.19.054.286a13.829 13.829 0 0 1 .06.413c.112.816.24 1.741.897 2.399.114.115.243.215.384.296.207.117.426.18.64.18.04 0 .08-.003.119-.007.366-.065.685-.285.877-.604.618-.87.953-2.547 1.032-4.226.011-.23.017-.46.019-.69a.439.439 0 0 1 .642-.384 6.851 6.851 0 0 0 3.202.785 7.419 7.419 0 0 0 5.269-2.216 7.557 7.557 0 0 0 2.103-4.026c.073-.415.11-.836.11-1.255a6.777 6.777 0 0 0-.81-3.241.438.438 0 0 1 .383-.647c.234 0 .467-.005.7-.015 2.384-.1 4.768-.709 4.904-1.913.045-.392-.121-.798-.467-1.144zm-9.663 12.676a.436.436 0 0 0 .107-.03 5.76 5.76 0 0 0 3.33-3.951.437.437 0 0 0-.85-.203A4.884 4.884 0 0 1 26 18.644a.437.437 0 0 0 .236.834zM23.535 9.321a4.817 4.817 0 0 0-3.278 1.85.437.437 0 1 1-.692-.535 5.685 5.685 0 0 1 3.869-2.184.436.436 0 0 1 .488.435.438.438 0 0 1-.387.434zm-4.296 4.664a.437.437 0 0 1-.438.422h-.014a.438.438 0 0 1-.423-.452c.016-.448.083-.893.203-1.326a.436.436 0 1 1 .843.233 4.88 4.88 0 0 0-.171 1.123z" fill="#0a99ab" fill-rule="evenodd"/></g></svg>