<svg width="34.52" height="32" xmlns="http://www.w3.org/2000/svg"><g><path d="M0 16C0 7.163 7.163 0 16 0s16 7.163 16 16-7.163 16-16 16S0 24.837 0 16z" fill="#fff" fill-rule="evenodd" opacity=".5"/><path d="M30.002 12.138a.438.438 0 0 1-.438.438h-.132a.438.438 0 0 1 0-.875h.132c.242 0 .438.196.438.437 0-.241.195-.437.437-.437h.13a.437.437 0 0 1 .438.437.413.413 0 0 1-.102.272l.13-.131a.438.438 0 0 1-.028-.14c0-.242.196-.438.438-.438h.131c.007 0 .012.002.018.003.004.002.009.003.014.003l.214-.214a6.188 6.188 0 0 0 1.363-2.054.43.43 0 0 1-.156-.328.434.434 0 0 1 .401-.43c.134-.511.201-1.037.2-1.565a6.47 6.47 0 0 0-.074-.976c-.036.022-.071.045-.114.057h-.003c-.017.006-.106.03-.121.035h-.002a.438.438 0 0 1-.531-.277.437.437 0 0 1-.314.509l-.124.034h-.001a.464.464 0 0 1-.117.016.437.437 0 0 1-.415-.294.438.438 0 0 1-.313.51l-.126.035a.467.467 0 0 1-.117.016.438.438 0 0 1-.415-.294.437.437 0 0 1-.153.427 3.308 3.308 0 0 1-.416 1.796.441.441 0 0 1 .173-.036h.131a.437.437 0 0 1 .438.437c0-.241.196-.437.437-.437h.131a.438.438 0 0 1 0 .875h-.13a.438.438 0 0 1-.438-.438.437.437 0 0 1-.438.438h-.131a.438.438 0 0 1-.435-.448c0 .003 0 .007-.003.01a.432.432 0 0 1-.375.425l-2.164 2.165h.081c.242 0 .438.196.438.437a.437.437 0 0 1 .437-.437h.131a.438.438 0 0 1 0 .875h-.13a.437.437 0 0 1-.438-.438.438.438 0 0 1-.438.438h-.131a.434.434 0 0 1-.43-.396l-.02.02a.426.426 0 0 1-.363.363l-2.164 2.165h.081a.438.438 0 0 1 .438.437.437.437 0 0 1 .437-.437h.131c.242 0 .438.196.438.437a.437.437 0 0 0 .437.438h.132a.437.437 0 1 0 0-.875h-.132a.438.438 0 0 0-.437.437.437.437 0 0 1-.438.438h-.13a.437.437 0 0 1-.438-.438.437.437 0 0 1-.438.438h-.131a.434.434 0 0 1-.43-.396l-.02.021a.427.427 0 0 1-.362.362l-2.165 2.165h.081a.438.438 0 0 1 0 .875h-.13a.433.433 0 0 1-.43-.396l-.02.02a.428.428 0 0 1-.364.363l-2.164 2.165h.081c.242 0 .438.196.438.437 0-.241.196-.437.437-.437h.132a.438.438 0 0 1 0 .875h-.132a.437.437 0 0 1-.437-.438.437.437 0 0 1-.438.438h-.13a.433.433 0 0 1-.43-.396l-.02.02a.428.428 0 0 1-.364.363l-1.229 1.23a1.454 1.454 0 0 0-.427 1.028c.106.08.18.2.18.344 0 .242.195.438.436.438h.132a.438.438 0 0 0 .438-.438.437.437 0 0 1 .437-.437h.13c.243 0 .439.196.439.437a.437.437 0 0 0 .437.438h.132l-.262.262c-.277.27-.65.419-1.036.415a1.462 1.462 0 0 1-1.036-.415 1.453 1.453 0 0 1-.318-.477.402.402 0 0 0 .07-.223c0-.241.196-.437.437-.437h.132c.242 0 .438.196.438.437 0 .242.195.438.437.438h.13a.438.438 0 0 0 .439-.438.437.437 0 0 1 .437-.437h.132c.241 0 .437.196.437.437a.437.437 0 0 1 .438-.437l2.255-2.255a.435.435 0 0 1-.272.103h-.131a.437.437 0 1 1 0-.875h.131c.242 0 .438.196.438.437 0-.241.196-.437.437-.437h.131c.006 0 .011 0 .016.003l.015.003 2.261-2.26a.434.434 0 0 1-.27.102h-.132a.437.437 0 0 1-.438-.438.437.437 0 0 1-.437.438h-.131a.437.437 0 0 1-.438-.438.437.437 0 0 1-.437.438h-.132a.437.437 0 1 1 0-.875h.132c.241 0 .437.196.437.437 0-.241.196-.438.438-.438h.131c.241 0 .437.197.437.438 0-.241.196-.438.438-.438h.131c.242 0 .438.197.438.438a.428.428 0 0 1-.103.271l.131-.13a.438.438 0 0 1-.028-.141m7.487-6.08L18.988 25.563a2.323 2.323 0 0 1-1.655.686 2.323 2.323 0 0 1-1.655-.686 2.34 2.34 0 0 1 0-3.31l7.4-7.398 6.053-6.054a2.415 2.415 0 0 0-3.417-3.417l-3.027 3.027a2.324 2.324 0 0 1-1.654.685 2.326 2.326 0 0 1-1.655-.685 2.343 2.343 0 0 1 0-3.31l3.027-3.027A7.049 7.049 0 0 1 27.423 0a7.048 7.048 0 0 1 5.018 2.075 7.048 7.048 0 0 1 2.075 5.019 7.048 7.048 0 0 1-2.075 5.017zm-.58-9.31a.494.494 0 0 0 .052-.004 6.156 6.156 0 0 1 1.466 2.543.436.436 0 0 0-.17.013l-.126.034a.438.438 0 0 0-.306.538.437.437 0 0 0-.538-.306l-.126.035a.438.438 0 0 0-.306.537.436.436 0 0 0-.54-.305 78.82 78.82 0 0 0-.124.034.438.438 0 0 0-.312.518.433.433 0 0 0-.253-.263 3.246 3.246 0 0 0-.692-1.256.433.433 0 0 0 .15-.098l.093-.093a.437.437 0 1 0-.62-.617l-.093.094a.432.432 0 0 0-.105.197 3.276 3.276 0 0 0-1.305-.543.428.428 0 0 0 .062-.156l.022-.13a.437.437 0 0 0-.863-.147l-.022.13a.456.456 0 0 0 .046.263 3.259 3.259 0 0 0-2.156.946l-.108.108a.47.47 0 0 0-.08-.076.417.417 0 0 0-.25-.083.438.438 0 0 0 .438-.438v-.13a.438.438 0 0 0-.438-.439.437.437 0 0 1-.437-.437V3.14a.437.437 0 0 1 .437-.438.437.437 0 0 1-.437-.437v-.132a.437.437 0 0 1 .437-.437c.216 0 .388-.16.423-.366a6.222 6.222 0 0 1 2.343-.455c.087 0 .173.005.26.011l.097.006a.426.426 0 0 0 .666.073c1.1.18 2.116.662 2.974 1.385a.426.426 0 0 0 .103.312.438.438 0 0 0-.597.022l-.092.093a.438.438 0 0 0 .621.617l.092-.093a.438.438 0 0 0 .003-.614c.087.084.2.12.312.116zm-7.204-1.106c.242 0 .437.196.438.437v.132a.438.438 0 0 1-.438.437c.242 0 .438.196.438.438v.13a.437.437 0 0 1-.438.438.438.438 0 0 0-.437.438v.131c0 .242.195.438.437.438a.437.437 0 0 0-.437.437V5.298c.005.09.039.177.096.248l-2.248 2.247c-.033.034-.073.06-.11.089a.431.431 0 0 0 .03-.148v-.132a.438.438 0 0 0-.437-.437.438.438 0 0 0 .437-.438v-.13a.437.437 0 0 0-.437-.438.437.437 0 0 1-.438-.438V5.59a.437.437 0 1 1 .875 0m8.014 6.548a.437.437 0 0 0 .437.438h.15a.434.434 0 0 0 .252-.103l-2.26 2.261a.066.066 0 0 1-.014-.003.049.049 0 0 0-.018-.004h-.131a.438.438 0 0 0-.438.438.416.416 0 0 1-.102.272l.13-.131a.438.438 0 0 1-.028-.14.437.437 0 0 0-.437-.439h-.131a.437.437 0 0 0 0 .875h.148a.433.433 0 0 0 .255-.102l-2.261 2.261c-.011 0-.02-.006-.032-.006h-.13a.438.438 0 0 0-.438.437M21.55 5.152a.437.437 0 0 1-.438-.437v-.11L19.996 5.72c-.57.571-.57 1.5 0 2.072.275.267.645.415 1.028.41h.012c.135-.001.27-.02.4-.055a.432.432 0 0 1-.323-.414v-.132c0-.241.196-.437.438-.437a.437.437 0 0 1-.438-.438v-.13a.437.437 0 0 1 .438-.438.438.438 0 0 0 .437-.438V5.59a.438.438 0 0 0-.437-.438zm0 0a.438.438 0 0 0 .437-.437v-.132a.435.435 0 0 0-.42-.433l.01-.01a.432.432 0 0 0 .405-.405l1.04-1.04c.427-.427.905-.781 1.42-1.063a.399.399 0 0 0 .213.063.437.437 0 0 0-.436.438M28.096 3.5a.437.437 0 0 0-.364-.43.438.438 0 0 1-.358-.505l.022-.13a.437.437 0 0 1 .505-.357.437.437 0 0 0 .505-.358l.021-.13a.437.437 0 0 0-.862-.147l-.022.13a.438.438 0 0 0 .358.505.435.435 0 0 0-.076-.007m5.605 6.61a.434.434 0 0 0-.401.43.438.438 0 0 0-.438-.437h-.132a.438.438 0 0 0 0 .875h.132a.438.438 0 0 0 .438-.438M20.483 21.657h-.131a.437.437 0 1 1 0-.875h.131a.438.438 0 0 1 0 .875zM30.525 4.228a.433.433 0 0 0 .22-.12l.093-.093a.443.443 0 0 0 .12-.39.435.435 0 0 0-.146-.251.437.437 0 0 0-.594.024l-.093.093a.438.438 0 0 0 .4.737zM27.732 3.07a.438.438 0 0 0 .505-.358l.022-.13a.439.439 0 0 0-.358-.504m-5.974 19.141a.41.41 0 0 1-.103.272l.131-.131a.438.438 0 0 1-.028-.14zm6.636-6.49l.003.002m1.442-5.626v.002m.004-.007l-.002.003m0 0l-.002.002m-7.497 11.68h.001m9.954-14.32" fill="#0a99ab" fill-rule="evenodd"/></g></svg>