<svg width="65" height="65" xmlns="http://www.w3.org/2000/svg"><g><g transform="translate(32.5 32.5)"><filter id="a" y="-51%" height="202%" x="-35%" width="170%"><feGaussianBlur in="SourceAlpha" stdDeviation="5"/><feOffset dy="10" result="oBlur"/><feFlood flood-color="#000" flood-opacity=".102"/><feComposite in2="oBlur" operator="in"/><feMerge><feMergeNode/><feMergeNode in="SourceGraphic"/></feMerge></filter><path transform="translate(-32.5 -32.5)" d="M0 32.5C0 50.45 14.55 65 32.5 65S65 50.45 65 32.5 50.45 0 32.5 0 0 14.55 0 32.5z" fill="#fff" fill-rule="evenodd" filter="url(#a)"/></g><path d="M41.737 43.358l-8.952-9.013-8.953 9.013a1.648 1.648 0 0 1-2.346 0 1.675 1.675 0 0 1 0-2.361l9.012-9.074-9.012-9.072a1.675 1.675 0 0 1 0-2.362 1.651 1.651 0 0 1 2.346 0l8.953 9.012 8.952-9.012a1.648 1.648 0 0 1 2.346 0 1.676 1.676 0 0 1 0 2.362l-9.012 9.072 9.012 9.073a1.676 1.676 0 0 1 0 2.361 1.647 1.647 0 0 1-2.346 0z" fill="#0a99ab" fill-rule="evenodd"/></g></svg>