<svg width="37.25" height="34" xmlns="http://www.w3.org/2000/svg"><g><path d="M.010000000000001563 18c0-8.837 7.163-16 16-16s16 7.163 16 16-7.163 16-16 16-16-7.163-16-16z" fill="#fff" fill-rule="evenodd" opacity=".5"/><path d="M36.001 9.918l-4.027 4.037-.022.028a.284.284 0 0 1-.026.03l-1.238 1.238a.046.046 0 0 1-.01.008.054.054 0 0 0-.012.007l-3.404 3.412a4.24 4.24 0 0 1-3.017 1.25c-1.14 0-2.21-.444-3.016-1.25l-.106-.105-7.135 7.116c-.33.33-.77.512-1.237.512a1.738 1.738 0 0 1-1.237-.513A1.737 1.737 0 0 1 11 24.451c-.001-.464.183-.91.513-1.237l7.135-7.116-.05-.05a4.237 4.237 0 0 1-1.249-3.016 4.237 4.237 0 0 1 1.25-3.016l8.74-8.76A4.238 4.238 0 0 1 30.355.007a4.237 4.237 0 0 1 3.016 1.25l2.63 2.629a4.236 4.236 0 0 1 1.249 3.016A4.237 4.237 0 0 1 36 9.918zm-.618-5.413l-2.63-2.63a3.368 3.368 0 0 0-2.397-.993 3.368 3.368 0 0 0-2.398.993L22.04 7.808c-.005.005-.007.012-.012.018l-.62.619a.877.877 0 0 0 .463 1.48.876.876 0 0 0 .775-.242l3.403-3.404a2.187 2.187 0 0 1 3.094 3.094l-1.547 1.547a.875.875 0 0 0 0 1.237c.165.161.388.25.619.248a.873.873 0 0 0 .618-.248l.62-.618a1.753 1.753 0 0 1 2.474 0c.22.219.366.488.445.78l3.011-3.02a3.368 3.368 0 0 0 .994-2.397c0-.906-.353-1.757-.993-2.398zm-17.158 8.527c-.003.9.355 1.764.993 2.398l2.63 2.63a3.369 3.369 0 0 0 2.397.993c.9.002 1.763-.355 2.398-.994l4.685-4.696a.863.863 0 0 0-.021-1.206.876.876 0 0 0-1.237 0l-.619.619c-.33.322-.775.5-1.237.496a1.746 1.746 0 0 1-1.238-.496 1.75 1.75 0 0 1 0-2.474l1.547-1.548a1.315 1.315 0 0 0-.684-2.217 1.311 1.311 0 0 0-1.172.361l-3.403 3.403a1.75 1.75 0 0 1-2.475 0 1.73 1.73 0 0 1-.447-.792l-1.123 1.126a3.367 3.367 0 0 0-.994 2.397zm-6.093 10.801a.869.869 0 0 0-.256.618c0 .234.091.453.256.619.166.161.388.25.62.248a.873.873 0 0 0 .618-.248l7.135-7.116-1.238-1.238-7.135 7.117z" fill="#0a99ab" fill-rule="evenodd"/></g></svg>