<svg width="65" height="65" xmlns="http://www.w3.org/2000/svg"><g><g transform="translate(32.5 32.5)"><filter id="a" y="-51%" height="202%" x="-35%" width="170%"><feGaussianBlur in="SourceAlpha" stdDeviation="5"/><feOffset dy="10" result="oBlur"/><feFlood flood-color="#000" flood-opacity=".102"/><feComposite in2="oBlur" operator="in"/><feMerge><feMergeNode/><feMergeNode in="SourceGraphic"/></feMerge></filter><path transform="translate(-32.5 -32.5)" d="M0 32.5C0 50.45 14.55 65 32.5 65S65 50.45 65 32.5 50.45 0 32.5 0 0 14.55 0 32.5z" fill="#fff" fill-rule="evenodd" filter="url(#a)"/></g><path d="M34.53 41.695l-7.647-7.646a2.94 2.94 0 0 1 0-4.163l7.647-7.646c.241-.244.523-.444.833-.592 1.647-.783 3.712.169 4.136 1.993.053.228.08.461.079.695l-4 7.504 4 7.788a2.897 2.897 0 0 1-.479 1.622c-.844 1.27-2.64 1.747-4.026.879a3.084 3.084 0 0 1-.543-.434z" fill="#0a99ab" fill-rule="evenodd"/></g></svg>