<svg width="160" height="52.83" xmlns="http://www.w3.org/2000/svg"><g><path d="M106.994 26.395c.04 14.607 11.897 26.425 26.505 26.418 14.612 0 26.499-11.849 26.499-26.416-.038-14.606-11.893-26.425-26.5-26.418-14.607-.009-26.464 11.81-26.504 26.416zm26.497-16.88c9.331 0 16.938 7.57 16.938 16.882 0 9.311-7.596 16.88-16.938 16.88-9.342 0-16.94-7.57-16.94-16.88.03-9.337 7.61-16.889 16.948-16.884M63.062 21.733h35.014c2.56 0 2.56 9.237 0 9.237H63.062c-2.557 0-2.557-9.237 0-9.237zM61.837 5.715l34.695-4.67c.045-.005.09-.008.136-.008 2.31 0 3.467 7.903 1.477 9.043-.114.066-.241.11-.373.127L63.08 14.87c-.045.007-.091.01-.138.01-2.441 0-3.595-8.833-1.102-9.169zM61.837 47.085l34.695 4.669c2.4.322 3.642-7.868 1.614-9.034a1.019 1.019 0 0 0-.374-.127L63.08 37.926a1.032 1.032 0 0 0-.137-.01c-2.442 0-3.596 8.836-1.103 9.17zM30.8 3.716v45.977a1.27 1.27 0 0 1-.628 1.027c-1.88 1.327-7.402 1.173-8.44-.46a1.041 1.041 0 0 1-.17-.567V3.716c.024-.426.26-.812.628-1.027 1.88-1.325 7.402-1.172 8.44.46.11.169.169.366.17.567zM46.108 2.44l6.225 45.607c.322 2.4-7.871 3.644-9.034 1.614a1.018 1.018 0 0 1-.127-.374L36.947 3.682c-.342-2.535 8.819-3.78 9.16-1.242zM6.231 2.428c.018-.132.06-.258.127-.373C7.498.065 15.4 1.223 15.4 3.533c0 .046-.003.092-.009.137L9.167 49.275c-.017.132-.06.258-.126.373-1.163 2.027-9.355.784-9.033-1.619L6.233 2.422" fill="#0a99ab" fill-rule="evenodd"/></g></svg>