<svg width="95" height="31.37" xmlns="http://www.w3.org/2000/svg"><g><path d="M79.271 31.38c-8.677 0-15.737-7.037-15.737-15.686 0-8.65 7.059-15.685 15.737-15.685 8.673-.004 15.712 7.013 15.734 15.686 0 8.65-7.058 15.684-15.734 15.684zm0-25.71c-5.544-.003-10.045 4.481-10.062 10.025.015 5.543 4.515 10.027 10.058 10.023 5.542.004 10.042-4.48 10.057-10.023 0-5.529-4.517-10.024-10.057-10.024zM37.433 12.913h20.79a.754.754 0 0 1 .61.373c.871 1.234.668 5.111-.61 5.111h-20.79a.753.753 0 0 1-.61-.372c-.87-1.235-.667-5.112.61-5.112zM36.712 3.404l20.6-2.772c1.506-.201 2.243 5.236.737 5.44l-20.6 2.769c-1.425.192-2.163-4.673-.958-5.363a.605.605 0 0 1 .222-.076zM36.712 27.97l20.6 2.772c1.426.192 2.163-4.671.958-5.363a.605.605 0 0 0-.221-.076l-20.6-2.771c-1.425-.191-2.163 4.675-.958 5.364.069.04.144.065.222.075zM18.287 2.217v27.298c0 1.52-5.485 1.52-5.485 0V2.217a.753.753 0 0 1 .373-.61c1.234-.87 5.112-.667 5.112.61zM27.382 1.455l3.697 27.079c.202 1.505-5.236 2.244-5.44.736L21.943 2.192a.612.612 0 0 1-.005-.082c0-1.371 4.692-2.058 5.37-.877.039.068.064.144.074.222zM3.7 1.45L.004 28.527A.614.614 0 0 0 0 28.61c0 1.451 5.244 2.136 5.443.658L9.14 2.19C9.329.765 4.465.027 3.774 1.231a.604.604 0 0 0-.075.222z" fill="#fff" fill-rule="evenodd"/></g></svg>