<svg width="37.25" height="33" xmlns="http://www.w3.org/2000/svg"><g><path d="M.010000000000001563 17c0-8.837 7.163-16 16-16s16 7.163 16 16-7.163 16-16 16-16-7.163-16-16z" fill="#fff" fill-rule="evenodd" opacity=".5"/><path d="M35.918 11.677l.395.396a1.314 1.314 0 0 1 0 1.856 1.312 1.312 0 0 1-.928.372 1.31 1.31 0 0 1-.928-.372l-.395-.396a7.477 7.477 0 0 1-4.253 1.334 7.367 7.367 0 0 1-4.928-1.882L11.747 25.986a.433.433 0 0 1-.314.127.436.436 0 0 1-.423-.352.437.437 0 0 1 .121-.396l13.13-12.998a7.435 7.435 0 0 1-1.873-5.041 7.392 7.392 0 0 1 1.328-4.139l-.395-.395a1.313 1.313 0 0 1 0-1.856c.495-.496 1.36-.496 1.856 0l.395.396a7.476 7.476 0 0 1 4.252-1.334c1.984 0 3.85.773 5.252 2.176a7.412 7.412 0 0 1 2.172 5.362 7.406 7.406 0 0 1-1.33 4.141zm-1.46-8.885A6.508 6.508 0 0 0 29.823.873c-1.453 0-2.884.49-4.027 1.38a.437.437 0 0 1-.578-.037l-.661-.661a.436.436 0 0 0-.619 0 .435.435 0 0 0-.019.598.442.442 0 0 0 .02.02l.66.662 9.857 9.857.619.619c.082.08.194.125.309.123a.438.438 0 0 0 .31-.124.438.438 0 0 0 0-.619l-.662-.66a.437.437 0 0 1-.036-.578 6.527 6.527 0 0 0 1.36-3.54 6.556 6.556 0 0 0-1.9-5.12zm-9.281 9.28a6.507 6.507 0 0 0 4.632 1.92 6.596 6.596 0 0 0 3.621-1.09L24.35 3.82a6.542 6.542 0 0 0-1.087 3.522 6.543 6.543 0 0 0 1.914 4.73zm2.459-.348a4.822 4.822 0 0 0 3.184.416.438.438 0 0 1 .182.856 5.658 5.658 0 0 1-1.182.123c-.893 0-1.781-.208-2.58-.615a.436.436 0 0 1-.193-.588.439.439 0 0 1 .589-.192zM31.45 2.88a.447.447 0 0 1-.136-.022 4.797 4.797 0 0 0-1.877-.224.442.442 0 0 1-.44-.437c0-.23.176-.42.405-.437a5.683 5.683 0 0 1 2.184.266.438.438 0 0 1-.136.854zm-3.658.185a4.863 4.863 0 0 0-.46.244.44.44 0 0 1-.6-.148.436.436 0 0 1 .147-.6c.177-.107.358-.203.545-.29a.44.44 0 0 1 .58.213.437.437 0 0 1-.212.58z" fill="#0a99ab" fill-rule="evenodd"/></g></svg>