<svg width="59.577" height="42.106" xmlns="http://www.w3.org/2000/svg"><path d="M.282 13.334l6.049 6.143-1.863.064a1.01 1.01 0 0 0-.946 1.012l.186 5.438a1 1 0 0 0 .318.703.986.986 0 0 0 .71.302l19.279-.715 1.111-2.053 1.497-2.742a.744.744 0 0 1 1.007-.312l.007.004a.739.739 0 0 1 .393.642.69.69 0 0 1-.073.384L17.71 41.157c.287.48.762.818 1.309.933.069.01.138.015.208.015.75 0 1.66-.563 2.669-1.61l16.883-19.029.483-.54a.759.759 0 0 1 1.134 1.008l-1.631 1.819-1.855 2.094 15.095-.554a10.145 10.145 0 0 0 3.802-.86c2.278-1.03 3.767-2.878 3.767-4.991 0-.056-.001-.11-.003-.166a5.119 5.119 0 0 0-2.561-4.09 9.4 9.4 0 0 0-5.422-1.378l-17.086.6L21.736 1.936a9.979 9.979 0 0 0-1.153-.955C19.385.143 18.243-.163 17.179.08a4.134 4.134 0 0 0-2.666 2.423c-.116.298-.084.634.086.906l7.315 11.444-7.098.288-8.863-6.695a1.02 1.02 0 0 0-1.223.007L.394 11.83a1.01 1.01 0 0 0-.19 1.416l.005.007.073.081z" fill="#0a99ab" fill-rule="evenodd"/></svg>