<svg width="25.931" height="22.276" xmlns="http://www.w3.org/2000/svg"><path d="M2.219 17.014l1.115-2.3A7.94 7.94 0 0 1 0 8.353 8.343 8.343 0 0 1 5.307.849 10.43 10.43 0 0 1 9.454 0a10.291 10.291 0 0 1 5.614 1.615 8.419 8.419 0 0 1 3.438 4.334.569.569 0 0 1-.072.51.563.563 0 0 1-.448.231l-.159-.008a10.253 10.253 0 0 0-5.447 1.523 7.488 7.488 0 0 0-3.736 6.274 6.664 6.664 0 0 0 .175 1.468.57.57 0 0 1 .01.19.545.545 0 0 1-.598.489 10.447 10.447 0 0 1-2.397-.566l-2.86 1.686a.523.523 0 0 1-.521.016.542.542 0 0 1-.268-.323.57.57 0 0 1 .034-.426zm20.772 5.203l-2.679-1.38a9.668 9.668 0 0 1-2.485.326 9.278 9.278 0 0 1-4.647-1.212c-1.713-.993-2.941-2.519-3.327-4.282a5.558 5.558 0 0 1-.129-1.19c0-3.685 3.636-6.682 8.103-6.682a9.284 9.284 0 0 1 4.648 1.211c2.088 1.21 3.456 3.211 3.456 5.471a6.3 6.3 0 0 1-2.93 5.14l.733 1.893a.57.57 0 0 1 .039.2v.006c0 .087-.02.172-.058.25a.536.536 0 0 1-.483.308.525.525 0 0 1-.241-.059zM10.805 5.012a1.688 1.688 0 0 0 .651 1.34c.277.215.618.332.97.332a1.648 1.648 0 0 0 1.62-1.672 1.685 1.685 0 0 0-.663-1.347 1.582 1.582 0 0 0-.958-.323 1.646 1.646 0 0 0-1.62 1.67zm-6.483 0a1.688 1.688 0 0 0 .651 1.34c.277.215.618.332.969.332a1.648 1.648 0 0 0 1.621-1.672A1.685 1.685 0 0 0 6.9 3.665a1.582 1.582 0 0 0-.958-.323 1.647 1.647 0 0 0-1.62 1.67zm9.724 7.24c-.002.356.165.69.45.904.182.136.403.21.63.21a1.1 1.1 0 0 0 1.08-1.114c0-.613-.485-1.114-1.08-1.114-.596 0-1.08.5-1.08 1.113zm5.402 0c-.001.356.166.69.45.904.182.136.404.21.63.21a1.098 1.098 0 0 0 1.08-1.114 1.125 1.125 0 0 0-.455-.908 1.05 1.05 0 0 0-.624-.206c-.596 0-1.08.5-1.08 1.113z" fill="#aaeff9" fill-rule="evenodd"/></svg>