<svg width="23.54" height="23.53" xmlns="http://www.w3.org/2000/svg"><path d="M5.556 21.757l-4.901 1.75a.49.49 0 0 1-.651-.525.49.49 0 0 1 .029-.113l1.83-4.75a11.745 11.745 0 0 1-1.86-6.344C.002 8.633 1.225 5.68 3.446 3.457A11.685 11.685 0 0 1 11.764.01h.01c2.199 0 4.354.615 6.22 1.778A11.683 11.683 0 0 1 23.23 9.11a11.674 11.674 0 0 1-1.473 8.881 11.762 11.762 0 0 1-4.36 4.116 11.843 11.843 0 0 1-5.634 1.43c-2.192 0-4.338-.615-6.208-1.78zm9.147-4.103h.031c1.441 0 2.665-1.03 2.91-2.45v-.98a.489.489 0 0 0-.273-.441c-.012-.006-1.206-.59-1.953-.98a1.127 1.127 0 0 0-.579-.124c-.667.03-1.334.576-1.7.933a5.361 5.361 0 0 0-.042.04 5.873 5.873 0 0 1-1.967-1.25 5.843 5.843 0 0 1-1.249-1.966c.49-.495 1.24-1.434.879-2.258A181.815 181.815 0 0 1 9.75 6.16a.493.493 0 0 0-.437-.269h-.98a2.941 2.941 0 0 0-2.357 3.63c.38 1.57 1.833 3.846 2.901 4.959a6.308 6.308 0 0 0 .473.446c1.218 1.06 3.34 2.357 4.786 2.662.187.041.377.063.567.066z" fill="#0a99ab" fill-rule="evenodd" style="stroke:none;stroke-width:0;stroke-dasharray:none;stroke-linecap:butt;stroke-dashoffset:0;stroke-linejoin:miter;stroke-miterlimit:4;fill:#0a99ab;fill-rule:evenodd;opacity:1"/></svg>