<svg width="37.25" height="32" xmlns="http://www.w3.org/2000/svg"><g><path d="M.010000000000001563 16c0-8.837 7.163-16 16-16s16 7.163 16 16-7.163 16-16 16-16-7.163-16-16z" fill="#fff" fill-rule="evenodd" opacity=".5"/><path d="M35.966 12.433a2.481 2.481 0 0 1-.733 1.499L23.924 25.241c-.42.42-.91.66-1.5.734L12.18 27.256a.436.436 0 0 1-.364-.125l-.686-.686a.439.439 0 0 1-.124-.364l1.283-10.244c.064-.57.323-1.1.733-1.5L24.33 3.03c.4-.41.93-.67 1.5-.733l10.243-1.283a.428.428 0 0 1 .364.125l.686.686a.437.437 0 0 1 .125.363l-1.282 10.246zm.004-10.525L25.938 3.164a1.693 1.693 0 0 0-.486.135.428.428 0 0 1-.096.147.436.436 0 0 1-.32.126l-.04.032a.631.631 0 0 0-.048.043L13.64 14.957a.846.846 0 0 0-.058.065l-.005.007a1.45 1.45 0 0 1-.024.03c0 .112-.045.22-.124.3a.434.434 0 0 1-.131.087c-.07.153-.118.317-.141.5L11.9 25.978l.383.383 10.033-1.254a1.651 1.651 0 0 0 .452-.123.432.432 0 0 1 .102-.182.424.424 0 0 1 .366-.12.653.653 0 0 1 .028-.024.472.472 0 0 0 .041-.036l11.31-11.309a.537.537 0 0 0 .04-.047.788.788 0 0 1 .027-.031.427.427 0 0 1 .12-.349.418.418 0 0 1 .17-.101 1.724 1.724 0 0 0 .126-.46l1.255-10.033-.383-.384zm-10.041 7.92a1.908 1.908 0 0 0-.861-.316c-.267.407-.472 1-.454 1.644a4.77 4.77 0 0 0-.258-.163c-.474-.28-.908-.41-1.338-.41-.283 0-.563.057-.823.168-.25.105-.502.26-.758.467-.142.116-.278.24-.407.37a3.441 3.441 0 0 0-.633.912c-.705 1.425-.806 3.505-.329 4.65.081.207.202.397.355.559.505.505 1.51.619 2.098.64a6.556 6.556 0 0 0 .67-.009 6.964 6.964 0 0 0 1.988-.404 3.815 3.815 0 0 0 1.365-.833c.792-.792 1.103-1.528.98-2.316a2.275 2.275 0 0 0-.054-.252 2.893 2.893 0 0 0-.208-.532 4.353 4.353 0 0 0-.277-.47c.026 0 .053.006.08.006.232 0 .464-.03.69-.086.466-.115.85-.33 1.086-.527.034-.028.066-.058.098-.089a.436.436 0 0 0-.021-.638.438.438 0 0 0-.598.02.665.665 0 0 1-.048.043c-.195.16-.666.406-1.222.402a1.816 1.816 0 0 1-.38-.04 2.052 2.052 0 0 1-.417-.125l1.66-1.661a.437.437 0 1 0-.618-.619l-1.653 1.653a1.88 1.88 0 0 1-.104-.332 2.496 2.496 0 0 1-.038-.218c-.093-.712.249-1.314.429-1.494zm-2.91 1.63c-.424 0-.86.237-1.37.748a2.786 2.786 0 0 0-.558.849c-.596 1.346-.538 3.305-.132 3.932a.63.63 0 0 0 .082.103c.169.169.65.339 1.38.38.112.005.223.008.335.008 1.321 0 2.565-.39 3.17-.994.519-.52.755-.957.748-1.395a1.208 1.208 0 0 0-.014-.167 1.808 1.808 0 0 0-.175-.52c-.15-.304-.391-.642-.73-1.025a11.498 11.498 0 0 0-.457-.484.385.385 0 0 1-.046-.042l-.004-.005a.694.694 0 0 1-.016-.02c-.648-.643-1.173-1.045-1.623-1.236a1.51 1.51 0 0 0-.59-.133zm-2.142 10.909a.47.47 0 0 0-.136-.318.438.438 0 0 0-.619.619l.03.03a.4.4 0 0 0 .305.12.451.451 0 0 0 .3-.135.424.424 0 0 0 .12-.302v-.014zm-1.354-.465a.453.453 0 0 0 .316-.136.426.426 0 0 0 .121-.317.472.472 0 0 0-.157-.336.437.437 0 0 0-.597.638l.03.03a.404.404 0 0 0 .287.12zM27.51 6.216a.435.435 0 0 0 .597-.022.437.437 0 0 0-.002-.618l-.03-.03a.405.405 0 0 0-.428-.096.47.47 0 0 0-.176.113.423.423 0 0 0-.12.3.47.47 0 0 0 .159.353zm-9.143 14.69a.4.4 0 0 0 .24.08.449.449 0 0 0 .316-.137.422.422 0 0 0 .12-.301v-.016a.471.471 0 0 0-.135-.316.438.438 0 0 0-.619.618l.03.03a.434.434 0 0 0 .048.042zm12.81-11.023a.435.435 0 0 0 .617-.044.436.436 0 0 0-.021-.596l-.03-.029a.406.406 0 0 0-.43-.097.468.468 0 0 0-.174.111.424.424 0 0 0-.12.317.47.47 0 0 0 .158.338zm-2.75-2.749a.435.435 0 0 0 .62-.048.437.437 0 0 0-.025-.594l-.03-.029a.405.405 0 0 0-.426-.096.468.468 0 0 0-.178.113.425.425 0 0 0-.12.315.47.47 0 0 0 .16.34zM26.593 5.3a.437.437 0 0 0 .596-.64l-.03-.03a.43.43 0 0 0-.047-.04c-.17-.126-.401-.098-.556.058a.425.425 0 0 0-.12.315.472.472 0 0 0 .157.337zm-4.92 18.3a.422.422 0 0 0 .122-.301.472.472 0 0 0-.136-.332.437.437 0 0 0-.619.618l.03.03a.4.4 0 0 0 .43.096.47.47 0 0 0 .174-.11zm11.335-11.885a.436.436 0 0 0 .6-.636l-.03-.03a.405.405 0 0 0-.429-.098.467.467 0 0 0-.174.111.423.423 0 0 0-.122.303.472.472 0 0 0 .155.35zm-16.473 7.359a.4.4 0 0 0 .38.055.466.466 0 0 0 .175-.112.424.424 0 0 0 .121-.316.47.47 0 0 0-.16-.34.437.437 0 0 0-.594.641l.03.03c.015.015.03.029.048.042zm17.385-6.446a.435.435 0 0 0 .624-.036.437.437 0 0 0-.02-.596l-.029-.03a.406.406 0 0 0-.428-.098.469.469 0 0 0-.176.11.423.423 0 0 0-.121.319.471.471 0 0 0 .15.331zm-18.3 5.53a.4.4 0 0 0 .376.054.47.47 0 0 0 .178-.111.424.424 0 0 0 .12-.302.471.471 0 0 0-.16-.355.438.438 0 0 0-.594.642l.03.03c.015.015.032.03.05.043zm14.011-10a.436.436 0 0 1-.308-.127.47.47 0 0 1-.137-.333.423.423 0 0 1 .12-.3c.155-.156.386-.184.555-.06a.43.43 0 0 1 .049.043l.03.029a.437.437 0 0 1-.309.748zM17.45 19.989a.4.4 0 0 0 .38.055.466.466 0 0 0 .176-.111.423.423 0 0 0 .12-.302.471.471 0 0 0-.16-.355.438.438 0 0 0-.593.642l.03.03c.014.015.03.028.047.041zm5.125 3.894c.17.17.185.462.014.633a.449.449 0 0 1-.316.136.4.4 0 0 1-.288-.121l-.03-.03a.436.436 0 0 1 0-.618.438.438 0 0 1 .62 0zM13.78 16.32a.401.401 0 0 0 .388.055.468.468 0 0 0 .17-.11.424.424 0 0 0 .121-.302v-.015a.47.47 0 0 0-.16-.34.438.438 0 0 0-.594.642l.03.03a.43.43 0 0 0 .045.04zM32.093 10.8a.435.435 0 0 0 .617-.044.437.437 0 0 0-.02-.596l-.03-.03c-.171-.17-.434-.156-.604.015a.423.423 0 0 0-.121.302.47.47 0 0 0 .158.353zM14.7 17.24a.4.4 0 0 0 .24.079.449.449 0 0 0 .316-.136.425.425 0 0 0 .12-.318.47.47 0 0 0-.156-.336.437.437 0 0 0-.598.639l.03.03a.434.434 0 0 0 .048.041zm15.847-8.166a.436.436 0 0 1-.31-.129.471.471 0 0 1-.135-.331.423.423 0 0 1 .12-.302c.172-.17.433-.186.604-.015l.03.03a.436.436 0 0 1-.31.747zm-4.872-4.692a.436.436 0 0 0 .717-.415.435.435 0 0 0-.12-.223l-.028-.03a.407.407 0 0 0-.429-.097.469.469 0 0 0-.176.112.423.423 0 0 0-.12.316.472.472 0 0 0 .156.337zm-2.41 20.276l.002-.002" fill="#0a99ab" fill-rule="evenodd"/></g></svg>